<svg width="288" height="138" version="1.1" viewBox="0 0 288 138" xmlns="http://www.w3.org/2000/svg">
 <defs>
  <clipPath id="clip-path">
   <rect width="352" height="173.37" data-name="Rechteck 4"/>
  </clipPath>
 </defs>
 <g id="BM_Logo_2018_main" transform="matrix(1 0 0 1 -194.35 -297.57)">
  <g transform="translate(177.59,297.69)" data-name="Gruppe 10">
   <g clip-path="url(#clip-path)" data-name="Gruppe 9">
    <path transform="translate(-108.94 -297.71)" d="m351.45 309.32c-0.836-1.6-2.331-2.522-2.83-4.457-0.22-0.249-1.378-1.422-0.337-1.613 0.733-0.132 0.7 0.938 0.938 1.349 0.66 1.158 2.067 2.639 2.624 3.5a27.8 27.8 0 0 1-0.4-3.577 0.938 0.938 0 0 0 0.542-0.337c0.894 0.557 1.1 1.818 1.554 2.83-0.279-2.786-1.891-5.014-2.566-7.961a2.117 2.117 0 0 1 1.481 0.469 6.549 6.549 0 0 1 0.205 0.938 15.662 15.662 0 0 1 2.023 3.841 19.312 19.312 0 0 1 2.9 6.539c2.346 0.132 4.178-0.557 5.117-2.36 0.909-1.759 0.924-4.4 1.012-6.48 0.924-0.235 0.836 0.6 0.88 1.217a10.523 10.523 0 0 1-0.132 4.252c-0.7 1.935-1.583 3.284-3.24 3.973a7.517 7.517 0 0 1 2.9-0.073c4.134 2.184 8.371-1.789 10.043-4.853 0.381-0.7 0.381-1.2 1.144-0.938a4.009 4.009 0 0 1-0.264 2.492 11.265 11.265 0 0 1-1.686 2.962c-1.539 1.818-3.372 2.39-5.4 3.915-0.616 0.455-2.3 1.745-1.95 2.7a5.21 5.21 0 0 0 1.085 0.806c0.469 0.279 1.114 0.381 1.481 0.6 1.246 0.777 1.51 2.419 2.492 3.5a8.323 8.323 0 0 0 2.1 1.217c0.337 0.191 0.63 0.586 0.938 0.748 0.264 0.132 0.7 0.191 1.012 0.337a7.48 7.48 0 0 1 2.082 1.686c0.235 0.264 0.484 0.4 0.542 0.6a2.707 2.707 0 0 1-1.408 2.83 4.111 4.111 0 0 1-0.469 1.276c-0.7 0.689-1.95 0.308-3.24 0.41a14.381 14.381 0 0 0-5.19 1.217 24.9 24.9 0 0 0-0.264 3.973c0.059 0.645 0.337 1.29 0.337 1.891-0.015 0.367-0.264 0.689-0.279 1.012-0.015 0.689 0.513 1.657 0.542 2.434 0.015 0.293-0.132 0.616-0.132 0.88-0.015 0.718 0.235 2.082 0.205 2.83-0.015 0.264-0.161 0.542-0.205 0.88a21.784 21.784 0 0 1-0.205 3.108c-0.176 0.572-0.674 1.041-0.88 1.613-0.191 0.542-0.117 1.188-0.264 1.818-0.161 0.7-0.63 1.393-0.806 2.1-0.264 1.026-0.161 2.258-0.542 3.445-0.425 1.378-1.481 2.536-1.554 4.31-0.059 1.6 0.264 3.3 0.205 4.985a14.967 14.967 0 0 0 0 2.566 25.363 25.363 0 0 1 0.806 3.372 17.717 17.717 0 0 1-0.264 2.023c-0.279 3.416-0.205 6.612 0.806 9.1 0.308 0.762 0.645 1.422 1.012 2.287 0.279 0.645 0.88 1.29 0.806 1.818-0.191 1.407-3.094 1.32-4.457 1.085a25.056 25.056 0 0 1-0.132-2.566c-0.117-0.572-0.674-1.07-0.806-1.686a18.614 18.614 0 0 1-0.073-2.434 45.306 45.306 0 0 0-0.806-5.733c-0.279-1.276-1.085-2.463-1.217-3.577-0.132-1.144 0.015-2.185-0.205-3.167a22.044 22.044 0 0 0-0.88-2.492c-0.279-0.806-0.542-1.657-0.88-2.492a14.93 14.93 0 0 0-0.938-2.36c-0.88-1.32-2.2-1.012-3.035 0.264a22.5 22.5 0 0 0-1.217 3.5c-0.337 0.894-0.66 1.525-1.012 2.492-0.454 1.276-0.484 3.269-0.88 4.794a29.7 29.7 0 0 0-1.349 7.682 26.4 26.4 0 0 0 0.542 3.973c0.044 0.323-0.059 0.6 0 0.938s0.337 0.557 0.469 0.938a4.224 4.224 0 0 1 0 2.3c-0.88 0.63-2.4 0.6-3.915 0.6-0.616-1.3-0.308-3.182-0.542-4.794a10.255 10.255 0 0 1-0.337-1.085 12.488 12.488 0 0 1 0.542-2.155 20.98 20.98 0 0 0 0.337-6c-0.117-1.114-0.5-2.185-0.6-3.24-0.117-1.1 0.425-1.6 0.543-2.566a19.217 19.217 0 0 0-0.073-2.624 26.822 26.822 0 0 0-0.411-4.721c-0.132-0.85-0.308-2.023-0.674-2.1-0.4-0.073-0.85 0.777-0.938 0.88-0.513 0.484-1.217 0.762-1.422 1.217a19.322 19.322 0 0 0-0.88 8.093 18.864 18.864 0 0 0 0.674 2.287c0.088 0.425 0 0.674 0.059 0.938 0.147 0.557 0.586 0.88 0.542 1.613a2.834 2.834 0 0 1-3.108 0.337c-0.191-0.5 0.029-1.041 0-1.554-0.015-0.308-0.176-0.616-0.205-0.938-0.015-0.279 0.1-0.572 0.073-0.806a11.845 11.845 0 0 1-0.469-1.349c-0.117-1.319 0.205-3.167 0.132-4.926-0.073-1.715-0.748-3.3-0.411-4.794 0.235-1.056 1.056-1.774 1.012-2.7a2.483 2.483 0 0 0-3.372 0.132c-0.381 0.41-0.836 1.07-1.349 1.686a8.3 8.3 0 0 0-2.023 5.058c-0.279 3.387-0.616 7.155-0.279 9.31-0.572 1.188 0.161 2.9 0 4.384a7.469 7.469 0 0 1-3.5 0.411c0.029-1.422 0.454-2.83 0.132-4.384-0.059-0.264-0.308-0.528-0.337-0.806a7 7 0 0 1 0.337-1.818 24.813 24.813 0 0 0 0.469-5.733c-0.059-1.334-0.6-2.654-0.748-3.841-0.117-1.041 0.308-1.422 0.469-2.229 0.073-0.337 0-0.748 0.073-1.085a9.04 9.04 0 0 0 0.264-2.624c-0.161-2.331-0.85-4.486-0.542-6.671a15.216 15.216 0 0 1 1.95-5.806c1.671-1.979 3.094-3.827 5.674-4.648 2.639-0.85 6.891-0.733 9.838-0.337 0.41 0.059 1.026 0.366 1.407 0.264a8.541 8.541 0 0 0 1.818-1.818c0.22-0.308 0.4-0.689 0.6-1.012a12.191 12.191 0 0 0 0.938-2.287 25.444 25.444 0 0 0 1.481-4.721 8.369 8.369 0 0 0-1.481-5.938 13.623 13.623 0 0 0-1.891-1.759c-1.95-1.671-3.783-3.225-3.915-6.876 1.276-0.953 3.533-0.323 5.263-0.073 0.572 0.088 1.129 0.015 1.686 0.073a6.5 6.5 0 0 0 2.228 0.205 2.225 2.225 0 0 0 1.098-1.454c0.029-1.231-1.539-1.759-2.1-2.624-2.727-1.276-7.125-0.894-10.849-0.733a17.9 17.9 0 0 1-2.155 0.132 11.774 11.774 0 0 1-1.554-0.337 27.674 27.674 0 0 1-4.178-1.085c-2.038-0.777-4.047-1.114-5.864-1.891a10.876 10.876 0 0 1-4.516-4.178c0.073-0.279 0.147-0.572 0.411-0.674a3.619 3.619 0 0 1 2.023 1.407c1.408 0.674 3.827 2.36 5.322 1.144a3.232 3.232 0 0 0 0.806-1.085 14.115 14.115 0 0 0 0.469-2.7 11.674 11.674 0 0 1 0.748-1.422c-0.059-1.466-0.689-3.5 0.41-4.31 0.323 0.279 0.337 1.012 0.469 1.276 0.044 0.073-0.132 0.015-0.132 0a17.614 17.614 0 0 0 0.469 2.287c0.161 0.572 0.572 1.114 0.748 1.759 0.147 0.542 0.161 1.129 0.337 1.613a9.009 9.009 0 0 0 2.434 3.3c0.982 0.337 1.994 1.232 3.445 1.422 2.536 0.4 5.938-0.176 8.606 0.029m9.515 4.985c-0.674-0.088-1.246-0.777-2.023-0.469a2.065 2.065 0 0 0 0.806 1.276 2.884 2.884 0 0 0 0.938 1.554c0.293 0.454 0.352 1.393 1.217 1.085a2.124 2.124 0 0 0 0.132-1.012 2.8 2.8 0 0 0 1.012-2.492c-0.777-0.293-1.407 0.147-2.082 0.059m-25.7-8.093c0.264-0.015 0.352 0.147 0.542 0.205 0.454 1 1.012 1.906 1.481 2.9a0.872 0.872 0 0 1-0.748 0c-0.308-0.1-1.026-0.674-0.748-0.674-0.1-0.117-0.205 0.044-0.337-0.132a10.124 10.124 0 0 0-0.191-2.3" style="fill:#e6007e" data-name="Pfad 1"/>
   </g>
  </g>
  <g transform="translate(240.14 356.2)" data-name="Gruppe 11">
   <path transform="translate(-220.25,-337.6)" d="m220.25 337.6h14.529l6.407 25.1 6.568-25.1h14.471v41.227h-8.342v-33.735l-8.811 33.735h-7.829l-8.694-34.087v34.087h-8.3z" data-name="Pfad 2"/>
   <path transform="translate(-204.47 -337.6)" d="m268.79 337.6h12.872l14.866 41.227h-10.013l-2.742-7.946h-16.919l-2.742 7.946h-10.013zm6.466 8.694-5.718 16.64h11.494z" data-name="Pfad 3"/>
   <path transform="translate(-189 -337.6)" d="m287.3 337.6h10.058v44.159h-10.058z" data-name="Pfad 4"/>
  </g>
  <g transform="translate(281.27 397.33)" data-name="Gruppe 12">
   <path transform="translate(-248.31,-365.65)" d="m248.31 365.65h18.942c4.78 0 8.034 0.924 10.19 3.035a7.986 7.986 0 0 1 2.522 5.865c0 5.923-5.557 7.565-8.9 8.547a16.281 16.281 0 0 1 5.513 1.847 8.793 8.793 0 0 1 4.78 7.814c0 5.923-5.146 9.984-12.653 9.984h-20.379v-37.092zm9.1 6.686v7.712h8.29c3.753 0 5.718-1.393 5.718-4.061 0-2.258-2.053-3.651-5.557-3.651h-8.445zm0 14.514v9.1h9.163c3.4 0 5.249-1.539 5.249-4.369 0-3.2-2.214-4.736-6.744-4.736h-7.668z" data-name="Pfad 5"/>
   <path transform="translate(-235.3 -365.65)" d="m276.21 365.65h18.99c8.547 0 14 4.12 14 10.541 0 3.5-1.7 8.591-8.489 10.028l9.779 16.523h-9.926l-9.207-15.336h-6.026v15.336h-9.1v-37.092zm9.207 6.686v8.342h8.958c3.24 0 5.293-1.642 5.293-4.325 0-2.316-2.111-4.017-5.087-4.017z" data-name="Pfad 6"/>
   <path transform="translate(-222.21 -365.65)" d="m313.37 365.65v23.209c0 4.838 2.155 7.257 6.641 7.257 4.736 0 7.052-2.419 7.052-7.4v-23.051h9.1v25.672c0 8.342-5.454 12.609-16.157 12.55s-15.7-4.222-15.7-12.55v-25.672h9.061z" data-name="Pfad 7"/>
   <path transform="translate(-208.77 -365.65)" d="m333.13 365.65h10.7l13.019 21.772v-21.772h8.751v37.093h-9.98l-13.738-23.106v23.106h-8.752z" data-name="Pfad 8"/>
   <path transform="translate(-194.8 -365.65)" d="m363.1 365.65h10.7l13.019 21.772v-21.772h8.753v37.093h-9.982l-13.738-23.106v23.106h-8.752z" data-name="Pfad 9"/>
  </g>
  <path transform="translate(5.328,12.063)" d="m189.02 323.57h10.527c2.654 0 4.457 0.513 5.659 1.686a4.437 4.437 0 0 1 1.407 3.255c0 3.284-3.094 4.208-4.941 4.75a8.816 8.816 0 0 1 3.064 1.026 4.885 4.885 0 0 1 2.654 4.34c0 3.284-2.859 5.542-7.037 5.542h-11.318v-20.6zm5.058 3.709v4.3h4.6c2.082 0 3.167-0.777 3.167-2.258 0-1.261-1.144-2.023-3.093-2.023h-4.677zm0 8.064v5.057h5.087c1.891 0 2.918-0.85 2.918-2.434 0-1.774-1.232-2.624-3.739-2.624z" data-name="Pfad 10"/>
  <path transform="translate(12.515,12.063)" d="m204.44 323.57h14.295l-0.777 3.768h-8.489v4.3h7.831v3.762h-7.829v5h8.723l0.777 3.768h-14.531z" data-name="Pfad 11"/>
  <path transform="translate(18.458,12.063)" d="m217.19 323.57h10.556c4.75 0 7.77 2.287 7.77 5.865a5.478 5.478 0 0 1-4.721 5.571l5.439 9.178h-5.513l-5.117-8.518h-3.343v8.518h-5.061v-20.614zm5.117 3.709v4.633h4.97c1.8 0 2.947-0.909 2.947-2.4 0-1.29-1.173-2.229-2.83-2.229z" data-name="Pfad 12"/>
  <path transform="translate(25.515,11.9)" d="m251.17 341.08a10.867 10.867 0 0 1-8.43 3.885c-6.114 0-10.409-4.34-10.409-10.571 0-4.574 2.023-11.172 10.38-11.172 4.369 0 6.436 2.023 8.122 4.091l-3.167 3.137c-1.261-1.657-2.771-2.918-4.941-2.918-3.724 0-5.087 2.551-5.087 6.773s1.627 6.407 4.78 6.407a5.815 5.815 0 0 0 3.695-1.144v-2.654h-4.369v-3.665h9.456v7.829z" data-name="Pfad 13"/>
  <path transform="translate(33.01,12.063)" d="m248.41 323.57h5.09v8.03h8.943v-8.03h5v20.614h-5.029v-8.694h-8.973v8.694h-5.031z" data-name="Pfad 14"/>
  <path transform="translate(40.44,11.886)" d="m275.01 323.19c5.835 0 10.659 3.856 10.659 10.893-0.029 6.891-4.838 10.923-10.659 10.923s-10.659-3.885-10.659-10.923 4.824-10.893 10.659-10.893zm0 17.388c3.372 0 5.322-2.522 5.322-6.495s-1.95-6.407-5.322-6.407-5.322 2.434-5.322 6.407 1.935 6.495 5.322 6.495z" data-name="Pfad 15"/>
  <path transform="translate(47.865,12.063)" d="m280.28 323.57h17.285v4.266h-6.143v16.347h-5.058v-16.347h-6.084z" data-name="Pfad 16"/>
  <path transform="translate(54.079,12.063)" d="m293.61 323.57h14.29l-0.777 3.768h-8.489v4.3h7.829v3.762h-7.829v5h8.723l0.777 3.768h-14.524z" data-name="Pfad 17"/>
  <path transform="translate(60.059,12.063)" d="m306.44 323.57h5.029v16.494h9.412v4.12h-14.441z" data-name="Pfad 18"/>
 </g>
</svg>
