<svg xmlns:xlink="http://www.w3.org/1999/xlink" id="Ebene_1" x="0" y="0" version="1.1" width="595" height="397" viewBox="0 0 475.5 291" xml:space="preserve" xmlns="http://www.w3.org/2000/svg"><style/><defs><path id="SVGID_1_" d="M-68-34h595.3v396.9H-68z"/></defs><clipPath id="SVGID_00000181085293394405570030000001868857447310259366_"><use overflow="visible" xlink:href="#SVGID_1_"/></clipPath><path d="M73.1 221.4v-9.7H27v-19.2h46.1V183H31.9c-1.6 0-3.7.1-4.5.2-2.1.3-4.2 1.1-5.8 2.5-3.4 2.6-4.7 5.8-4.7 11.4v13c0 3.5 1.9 6.6 5.3 9.2 2.1 1.6 4.2 2.2 7.7 2.2l43.2-.1z" clip-path="url(#SVGID_00000181085293394405570030000001868857447310259366_)"/><defs><path id="SVGID_00000147187418504074088490000011317993676460159138_" d="M-68-34h595.3v396.9H-68z"/></defs><clipPath id="SVGID_00000010302333599041258920000011123745560796943755_"><use overflow="visible" xlink:href="#SVGID_00000147187418504074088490000011317993676460159138_"/></clipPath><path d="M135.8 221.4v-9.7H90.6v-4.6H125v-9.9H90.6v-4.7h45.3V183H94.5c-4.7 0-7.3.8-10.1 3.3s-4 5.2-4 9v13.9c0 2.2.4 3.8 1.4 5.4.9 1.6 2.3 3.1 3.6 4.1 2.3 1.9 5 2.7 8.8 2.7h41.6z" clip-path="url(#SVGID_00000010302333599041258920000011123745560796943755_)"/><defs><path id="SVGID_00000102505070337938210540000005369474319515730360_" d="M-68-34h595.3v396.9H-68z"/></defs><clipPath id="SVGID_00000020364701593743492930000014482295700495868839_"><use overflow="visible" xlink:href="#SVGID_00000102505070337938210540000005369474319515730360_"/></clipPath><path d="M145.6 221.4h10.1v-28.8l26.9 25.9c2.5 2.4 5.5 3.8 8.3 3.8 4.1 0 7.8-2.6 9.2-6.2.5-1.5.8-3 .8-4.8V183h-10.1v29l-26.9-26.1c-2.6-2.5-5.4-3.7-8.3-3.7-5.5 0-9.9 4.1-9.9 8.9l-.1 30.3z" clip-path="url(#SVGID_00000020364701593743492930000014482295700495868839_)"/><path d="M205.9 192.6h22.6v28.8h10.1v-28.8h22.7V183h-55.4z"/><defs><path id="SVGID_00000052819010403053737930000001112187800714316986_" d="M-68-34h595.3v396.9H-68z"/></defs><clipPath id="SVGID_00000158727505881673322770000003487447391885249972_"><use overflow="visible" xlink:href="#SVGID_00000052819010403053737930000001112187800714316986_"/></clipPath><path d="M324.5 183h-10.1v28.8h-36.5V183h-10.1v26c0 2 .5 3.8 1.4 5.2 1 1.6 2.7 3.6 4.1 4.8 2 1.7 4.1 2.4 6.8 2.4h32.7c2.8 0 5.8-1.3 8.2-3.7 1.6-1.5 2.7-3.2 3.1-4.6.3-.8.4-1.7.4-2.9V183z" clip-path="url(#SVGID_00000158727505881673322770000003487447391885249972_)"/><path d="M389.9 183l22.5 27v11.4h10.2V210l21.6-27h-12.5l-14.6 17.5-14.4-17.5z"/><defs><path id="SVGID_00000089556308635293415790000013097150000644706492_" d="M-68-34h595.3v396.9H-68z"/></defs><clipPath id="SVGID_00000090980094058287078180000001684571535580329654_"><use overflow="visible" xlink:href="#SVGID_00000089556308635293415790000013097150000644706492_"/></clipPath><path d="M333.7 183h43.2c6.3 0 12 5.6 12 11.7 0 2.6-.9 5.1-2.5 7.5-2.4 3.5-5.6 4.4-6.8 4.6l12 14.5H379l-12.2-14.5h-23v14.6h-10.1V183zm10.1 14.2h35.1v-4.6h-35.1v4.6z" clip-path="url(#SVGID_00000090980094058287078180000001684571535580329654_)"/><path d="M390 183l22.5 27v11.4h10.1V210l21.6-27h-12.4l-14.6 17.5-14.5-17.5z"/><defs><path id="SVGID_00000124884165768615629520000009745121515417265592_" d="M-68-34h595.3v396.9H-68z"/></defs><clipPath id="SVGID_00000078039007162653822580000010136876829986275979_"><use overflow="visible" xlink:href="#SVGID_00000124884165768615629520000009745121515417265592_"/></clipPath><path fill="#dd7a00" d="M197.2 113.3c1.6-12.6 47.1-11.2 98.1 3.4 34 9.7 31.7 17.3 31.6 17.9-.1.6-.8 1.4-2.7.9-60.6-17.5-56.4 6.3-108.7-6.5-8.1-2.6-19.5-5.8-18.3-15.7" clip-path="url(#SVGID_00000078039007162653822580000010136876829986275979_)"/><g><defs><path id="SVGID_00000085244558873307959620000011479529354531423933_" d="M-68-34h595.3v396.9H-68z"/></defs><clipPath id="SVGID_00000074441887161343452840000006820240460096264083_"><use overflow="visible" xlink:href="#SVGID_00000085244558873307959620000011479529354531423933_"/></clipPath><path fill="#da001a" d="M328 124.9s-4-30.7-30.1-67.9c-27.6-39.3-40.2-14.3-27.2 3.3 11.4 15.4 28.7 29.9 39.4 46 5.3 8.2 18.2 28 17.9 18.6" clip-path="url(#SVGID_00000074441887161343452840000006820240460096264083_)"/><defs><path id="SVGID_00000146481573090114499230000003228945928029527170_" d="M-68-34h595.3v396.9H-68z"/></defs><clipPath id="SVGID_00000181088865740009012880000017328864679052469647_"><use overflow="visible" xlink:href="#SVGID_00000146481573090114499230000003228945928029527170_"/></clipPath><path fill="#da001a" d="M338.7 140c3.7-1.1 28.3-3.1 41 5.2 12.6 8.3 29 19.4 37.3 26.4 6.4 5.4 15.2-1.2 7.4-15.5-7.8-14.2-37.5-33-64.8-27.2-11.7 2.5-18 3.8-23.8 7.7-5.5 3.5-.9 4.4 2.9 3.4" clip-path="url(#SVGID_00000181088865740009012880000017328864679052469647_)"/><defs><path id="SVGID_00000021838228419685854350000009202768150376535442_" d="M-68-34h595.3v396.9H-68z"/></defs><clipPath id="SVGID_00000122697827631135117110000011965465238819958147_"><use overflow="visible" xlink:href="#SVGID_00000021838228419685854350000009202768150376535442_"/></clipPath><path fill="#ec736a" d="M402.5 96.3c-17-7.8-52.2 5.9-66.5 28.8-3 5.2 13 9 37-7.2 23.9-16.1 39.5-17 29.5-21.6" clip-path="url(#SVGID_00000122697827631135117110000011965465238819958147_)"/><defs><path id="SVGID_00000093157812820822251780000016862601041977097381_" d="M-68-34h595.3v396.9H-68z"/></defs><clipPath id="SVGID_00000118389112105556536860000000629755594656927130_"><use overflow="visible" xlink:href="#SVGID_00000093157812820822251780000016862601041977097381_"/></clipPath><path fill="#ec736a" d="M331.7 142.8c-2.4-6.7-13.3-6.8-26.7 6.9-13.4 13.7-15 33.5-11.9 38.6 3.1 5.2 13.5-19.2 22.4-26.9 8.7-7.6 18.5-12.1 16.2-18.6" clip-path="url(#SVGID_00000118389112105556536860000000629755594656927130_)"/><defs><path id="SVGID_00000081629318667399472550000016273272560168782778_" d="M-68-34h595.3v396.9H-68z"/></defs><clipPath id="SVGID_00000098221996436923516590000011493314163552770950_"><use overflow="visible" xlink:href="#SVGID_00000081629318667399472550000016273272560168782778_"/></clipPath><path fill="#fabb00" d="M331.4 121.6s-.1-1.4-.1-1.8c1.3-6.1 9.1-43.3 28.8-68.7 18.2-23.6 31.7-40 48.3-30.3 10.8 6.3-5.5 30.4-30.6 47.4-37.6 25.4-43.7 65.4-46.4 53.4" clip-path="url(#SVGID_00000098221996436923516590000011493314163552770950_)"/><g><defs><path id="SVGID_00000026861620891078441480000013319018061689553817_" d="M-68-34h595.3v396.9H-68z"/></defs><clipPath id="SVGID_00000141440031721090704920000006284903714399910847_"><use overflow="visible" xlink:href="#SVGID_00000026861620891078441480000013319018061689553817_"/></clipPath><path fill="#fabb00" d="M353 145.5c5.8 7.4 5.1 15.3 6 21 1.9 12.4 21 11.8 18.6-5.8-2-14.4-21.3-37-40.9-24.8-6.3 3.8-2.6 5.1 1.5 4.1 0 0 8.1-3 14.8 5.5" clip-path="url(#SVGID_00000141440031721090704920000006284903714399910847_)"/></g><g><defs><path id="SVGID_00000120528228584496735980000011268362064056772004_" d="M-68-34h595.3v396.9H-68z"/></defs><clipPath id="SVGID_00000079477274402020989130000012156496111367918737_"><use overflow="visible" xlink:href="#SVGID_00000120528228584496735980000011268362064056772004_"/></clipPath><path fill="#929395" d="M72.3 266.8v-9.7H26.9v-19.2h45.5v-9.6H31.7c-1.6 0-3.6.1-4.4.2-2.1.3-4.1 1.1-5.8 2.5-3.3 2.6-4.6 5.8-4.6 11.4v13c0 3.5 1.8 6.6 5.2 9.2 2.1 1.7 4.2 2.2 7.6 2.2h42.6z" clip-path="url(#SVGID_00000079477274402020989130000012156496111367918737_)"/></g><g><defs><path id="SVGID_00000101814398068836226520000009096869029547464064_" d="M-68-34h595.3v396.9H-68z"/></defs><clipPath id="SVGID_00000079458772061799286790000008532169727723934097_"><use overflow="visible" xlink:href="#SVGID_00000101814398068836226520000009096869029547464064_"/></clipPath><path fill="#929395" d="M198.6 252.4v4.8h-47.3v9.7h44.2c7.2 0 13.1-5.4 13.1-12.1 0-6.7-6-12.3-13.3-12.3h-35.8V238h46.4v-9.6h-42.5c-8.2 0-14.6 5.3-14.6 12 0 6.6 6 12.1 13.2 12.1l36.6-.1z" clip-path="url(#SVGID_00000079458772061799286790000008532169727723934097_)"/></g></g><path fill="#929395" d="M221.3 228.3h10v38.5h-10z"/><g><defs><path id="SVGID_00000051354230522688830250000012379431302508653490_" d="M-68-34h595.3v396.9H-68z"/></defs><clipPath id="SVGID_00000176024269808525097230000005061025817891694497_"><use overflow="visible" xlink:href="#SVGID_00000051354230522688830250000012379431302508653490_"/></clipPath><path fill="#929395" d="M246.7 266.8h10V238l26.6 25.9c2.5 2.4 5.4 3.8 8.2 3.8 4.1 0 7.7-2.6 9.1-6.2.5-1.4.7-3 .7-4.8v-28.4h-10v29.1l-26.5-26.1c-2.6-2.5-5.3-3.7-8.2-3.7-5.4 0-9.8 4.1-9.8 8.9v30.3z" clip-path="url(#SVGID_00000176024269808525097230000005061025817891694497_)"/><defs><path id="SVGID_00000032624955135509534150000002561583252968498320_" d="M-68-34h595.3v396.9H-68z"/></defs><clipPath id="SVGID_00000080906046483531166920000000955060827744400275_"><use overflow="visible" xlink:href="#SVGID_00000032624955135509534150000002561583252968498320_"/></clipPath><path fill="#929395" d="M113.1 238.1l-18.9 28.7h-12l19.7-29.2 2-3c2.3-4.5 5.7-7 9.4-7 2.1 0 4.1.8 5.6 2.1 1.1.9 2.9 3.5 3.8 5.1l2 3.1 19.5 29h-11.8l-19.3-28.8z" clip-path="url(#SVGID_00000080906046483531166920000000955060827744400275_)"/><defs><path id="SVGID_00000098195512884106605730000015915424992788977571_" d="M-68-34h595.3v396.9H-68z"/></defs><clipPath id="SVGID_00000120557970745397540510000001285007095383767689_"><use overflow="visible" xlink:href="#SVGID_00000098195512884106605730000015915424992788977571_"/></clipPath><path fill="#929395" d="M431.8 252.4v4.8h-47.3v9.7h44.2c7.2 0 13.1-5.4 13.1-12.1 0-6.7-6-12.3-13.3-12.3h-35.8V238h46.4v-9.6h-42.5c-8.2 0-14.6 5.3-14.6 12 0 6.6 6 12.1 13.2 12.1l36.6-.1z" clip-path="url(#SVGID_00000120557970745397540510000001285007095383767689_)"/><g><defs><path id="SVGID_00000145781054704945535730000009076523948919327925_" d="M-68-34h595.3v396.9H-68z"/></defs><clipPath id="SVGID_00000083075913735138667110000013093015309318206654_"><use overflow="visible" xlink:href="#SVGID_00000145781054704945535730000009076523948919327925_"/></clipPath><path fill="#929395" d="M324.6 237.9h34.8v19.2h-34.8v-19.2zm2.5 28.9h30c3.6 0 6.1-1 8.8-3.6 2.6-2.7 3.6-4.9 3.6-8.3v-14.3c0-2.1-.4-3.7-1.2-5.2-.9-1.4-2.1-3-3.1-4.1-2.2-2-4.8-3-7.9-3h-28.7c-3.4 0-5.6.6-7.7 1.9-2.6 1.6-4.8 4.1-5.6 6.2-.4 1-.5 2.1-.5 3.3v14.6c0 4.2 1.4 7.2 4.7 9.9 1.9 1.9 4.3 2.6 7.6 2.6" clip-path="url(#SVGID_00000083075913735138667110000013093015309318206654_)"/></g><g><defs><path id="SVGID_00000061443669137496685570000004917716416907193241_" d="M-68-34h595.3v396.9H-68z"/></defs><clipPath id="SVGID_00000044889301247291113790000012260780564984149939_"><use overflow="visible" xlink:href="#SVGID_00000061443669137496685570000004917716416907193241_"/></clipPath><path d="M450.3 185.7h.9c.5 0 1.1.1 1.1.7 0 .7-.5.8-1.1.8h-.9v-1.5zm-1 4.6h1V188h.6l1.4 2.3h1l-1.4-2.3c.9-.1 1.4-.5 1.4-1.4 0-1.1-.7-1.6-2-1.6h-2v5.3zm1.8 1.1c-2 0-3.6-1.6-3.6-3.8 0-2.2 1.6-3.8 3.6-3.8s3.5 1.6 3.5 3.8c0 2.2-1.6 3.8-3.5 3.8m0 .9c2.6 0 4.7-2.1 4.7-4.7s-2.1-4.7-4.7-4.7-4.7 2.1-4.7 4.7 2.1 4.7 4.7 4.7" clip-path="url(#SVGID_00000044889301247291113790000012260780564984149939_)"/></g></g></svg>
