<svg viewBox="0 0 256 256" xmlns="http://www.w3.org/2000/svg"><style></style><g stroke-width=".903"><path d="M0 0v256h256V0H0z" fill="#fff" paint-order="markers fill stroke"/><path d="M0 0v256h56.889c-12.732-8.308-21.852-22.123-21.852-43.795 0-38.829 27.541-58.062 63.57-58.062 10.565 0 20.588 1.624 30.701 4.424v28.807c-9.933-5.238-17.608-8.67-29.166-8.67-18.241 0-30.16 15.26-30.16 33.502 0 18.873 13.184 27.812 32.418 27.812 9.572 0 18.059-2.619 26.908-5.78v21.763h10.115v-22.123c10.655 5.688 19.144 8.757 31.695 8.757 5.057 0 14.537-.27 14.537-7.404 0-15.712-50.025-5.778-50.025-45.78 0-28.445 27.903-35.399 49.033-35.399 9.843 0 18.962 1.265 28.354 4.064v29.166c-9.03-4.153-16.345-6.502-26.459-6.502-4.605 0-15.982 0-15.982 6.954 0 12.823 50.025 4.245 50.025 43.797 0 10.746-3.25 18.692-8.578 24.38h12.914v-97.884h31.062v-12.914h-31.062V111.07h31.062V0h-256z" clip-rule="evenodd" fill-rule="evenodd" fill="#b31218"/></g></svg>