<svg data-name="Ebene 1" xmlns="http://www.w3.org/2000/svg" width="200" height="80" viewBox="0 0 161.58 29.35"><defs><style>.cls-1{fill:#000;}.cls-2{fill:#f7be00;}</style></defs><path class="cls-1" d="M161.29,35.72V32.45H154.9c-1.75,0-2.33-.45-2.33-2V27.88h5.84l.26-3.28h-6.1V20.19h8.72V16.91H148.9V30.76c0,3.72,1.53,5,5.73,5Zm-16.51,0V16.91H141.1v8h-6.89v-8h-3.67V35.72h3.67v-7.6h6.89v7.6ZM123.91,26.8c0,2.93-.35,5.81-3.81,5.81s-3.78-2.94-3.8-5.81v-1c0-3.15.37-5.79,3.8-5.79s3.81,2.64,3.81,5.79Zm3.67-1.35c0-5.76-2.3-8.69-7.48-8.69s-7.47,2.93-7.47,8.66V26.8c0,6.41,2.19,9.08,7.47,9.08s7.48-2.67,7.48-9ZM110.86,35.72V32.45h-5.6c-1.75,0-2.33-.45-2.33-2V16.91H99.26V30.49c0,3.73,1.79,5.23,6,5.23ZM95.45,16.91H91.78V29.23L84.07,16.91H80.53V35.72H84.2V23.65l6.5,10.17c1.06,1.9,2.17,2.12,3,2.12a2,2,0,0,0,1.77-2.12ZM77.2,35.72V32.45H70.81c-1.75,0-2.33-.45-2.33-2V27.88h5.84l.26-3.28h-6.1V20.19H77.2V16.91H64.81V30.76c0,3.72,1.53,5,5.73,5Zm-16.51,0V16.91H57v8h-6.9v-8H46.45V35.72h3.67v-7.6H57v7.6ZM39.82,26.8c0,2.93-.35,5.81-3.81,5.81s-3.77-2.94-3.8-5.81v-1c0-3.15.37-5.79,3.8-5.79s3.81,2.64,3.81,5.79Zm3.67-1.35c0-5.76-2.3-8.69-7.48-8.69s-7.47,2.93-7.47,8.66V26.8c0,6.41,2.19,9.08,7.47,9.08s7.48-2.67,7.48-9ZM25.58,35.72V16.91H21.91v8H15v-8H11.34V35.72H15v-7.6h6.9v7.6Z" transform="translate(-11.34 -6.58)"/><path class="cls-2" d="M172.91,10.73h-4.14V6.58h-3.32v4.15h-4.14v1.65A1.66,1.66,0,0,0,163,14h2.48v4.15h3.32V14h4.14Z" transform="translate(-11.34 -6.58)"/></svg>