<svg xmlns="http://www.w3.org/2000/svg" width="174.544" height="43.051" viewBox="0 0 174.544 43.051"><path d="M0,0V43.051H43.051V0ZM9.531,34.388V8.663h0l16.08,25.725ZM33.52,23.674,24.129,8.663H33.52Z"/><path d="M81.974,36.118H76.31L68.024,17.7V36.118H62.36V8.06h5.664l8.3,18.413V8.06h5.647Z" transform="translate(-7.683 -0.993)"/><path d="M95.864,36.118H90.2V8.06h5.664Z" transform="translate(-11.113 -0.993)"/><path d="M119.439,12.787H112.5V36.119h-5.682V12.787H100V8.07h19.439Z" transform="translate(-12.32 -0.994)"/><path d="M137.221,28.7a3.507,3.507,0,0,0-.877-2.63,10.224,10.224,0,0,0-3.183-1.815,14.782,14.782,0,0,1-6.067-3.753,7.505,7.505,0,0,1-1.85-5.077,7.111,7.111,0,0,1,2.508-5.69,9.522,9.522,0,0,1,6.392-2.148,9.645,9.645,0,0,1,4.6,1.087,7.575,7.575,0,0,1,3.113,3.078,9.285,9.285,0,0,1,1.087,4.507H137.3a4.665,4.665,0,0,0-.877-3,2.92,2.92,0,0,0-2.411-1.026,3.016,3.016,0,0,0-2.315.877,3.279,3.279,0,0,0-.824,2.359,2.9,2.9,0,0,0,.877,2.087,10.574,10.574,0,0,0,3.279,1.938,14.09,14.09,0,0,1,5.962,3.639,8.137,8.137,0,0,1,1.859,5.5,7.242,7.242,0,0,1-2.332,5.717,9.206,9.206,0,0,1-6.339,2.06,10.907,10.907,0,0,1-4.849-1.078,8.4,8.4,0,0,1-3.507-3.2,9.276,9.276,0,0,1-1.263-4.91h5.69a5.419,5.419,0,0,0,.938,3.507,3.884,3.884,0,0,0,3.086,1.1Q137.221,31.841,137.221,28.7Z" transform="translate(-15.346 -0.934)"/><path d="M162.961,30.383h-7.725l-1.5,5.734h-6L156.508,8.06h5.182l8.829,28.058h-6.05Zm-6.488-4.726h5.261l-2.63-10Z" transform="translate(-18.202 -0.993)"/><path d="M196.314,36.118H190.65L182.364,17.7V36.118H176.7V8.06h5.664l8.3,18.413V8.06h5.647Z" transform="translate(-21.77 -0.993)"/></svg>