<svg width="215" height="52" fill="none" viewBox="0 0 215 52" xmlns="http://www.w3.org/2000/svg"><path fill="#fff" fill-rule="evenodd" d="M26.342 0h-2.356C2.657 0 .01 11.552 0 20.692v1.689c0 9.032 2.657 20.956 23.954 20.956h2.356c5.206 0 9.299-.709 12.512-1.911V52h11.471V40.202H41.51c7.546-4.141 8.78-11.63 8.786-17.786v-1.689C50.296 11.53 47.64 0 26.342 0zm12.483 21.964c0 5.073 0 11.725-13.687 11.725-13.667 0-13.667-6.655-13.667-11.726v-.812c0-5.193 0-11.561 13.687-11.561 13.667 0 13.667 6.372 13.667 11.562v.812zM188.69 0h2.356v.003C212.343.003 215 11.533 215 20.727v1.689c-.01 9.03-2.657 20.92-23.986 20.92h-2.356c-21.297 0-23.954-11.923-23.954-20.955v-1.689C164.714 11.552 167.361 0 188.69 0zm1.152 33.69c13.687 0 13.687-6.653 13.687-11.726v-.812c0-5.19 0-11.562-13.667-11.562-13.687 0-13.687 6.368-13.687 11.562v.811c0 5.07 0 11.726 13.667 11.726zm-113.59-.355c10.136.01 11.32-6.873 11.32-11.673h.003l.032.01V.618h10.975v21.398c-.012 8.407-.03 21.215-21.684 21.215h-1.56c-21.811 0-21.824-12.944-21.801-21.295V.598h11.029v21.044c0 4.8 1.28 11.693 11.417 11.693h.269zM103.162.617h11.051v41.988h-11.051V.617zm51.761.046L141.87 32.477 128.913.64l-12.87-.01 18.476 41.997 14.529.01L166.932.664h-12.009z" clip-rule="evenodd"/></svg>