<?xml version="1.0" encoding="UTF-8"?>
<svg xmlns="http://www.w3.org/2000/svg" xmlns:xlink="http://www.w3.org/1999/xlink" version="1.1" id="Layer_2_00000147923859497691086870000002559477555340445375_" x="0px" y="0px" viewBox="0 0 155 38.6" style="enable-background:new 0 0 155 38.6;" xml:space="preserve">
<style type="text/css">
	.st0{fill:#F12650;}
	.st1{fill:none;}
</style>
<g id="Layer_2-2">
	<path d="M13.3,9.5H4.9V7.3h19.5v2.2h-8.5v21.9h-2.6V9.5z"></path>
	<path d="M40.5,19.6c1.3,1.2,2,2.8,2,4.8c0,1.4-0.3,2.6-1,3.7c-0.7,1.1-1.7,1.9-3,2.5c-1.3,0.6-2.9,0.9-4.8,0.9   c-1.7,0-3.4-0.3-4.9-0.8c-1.5-0.6-2.8-1.3-3.7-2.2l1.2-2c0.8,0.8,1.9,1.5,3.2,2c1.3,0.5,2.8,0.8,4.3,0.8c2,0,3.5-0.4,4.6-1.3   c1.1-0.9,1.6-2,1.6-3.6s-0.5-2.7-1.6-3.5s-2.7-1.3-4.9-1.3h-1.7v-1.8l6.7-8.4H26.1V7.3h15.5V9l-6.8,8.6   C37.3,17.7,39.2,18.4,40.5,19.6L40.5,19.6L40.5,19.6z"></path>
	<path d="M64.9,18.9H70v9.8c-1.3,1-2.8,1.7-4.5,2.3s-3.5,0.8-5.2,0.8c-2.5,0-4.8-0.5-6.7-1.6s-3.6-2.5-4.7-4.4   c-1.1-1.9-1.7-4-1.7-6.4s0.6-4.5,1.7-6.4c1.1-1.9,2.7-3.4,4.7-4.4s4.3-1.6,6.8-1.6c2.1,0,4,0.4,5.7,1.1s3.2,1.7,4.3,3.1l-3.6,3.3   c-1.7-1.8-3.8-2.7-6.2-2.7c-1.5,0-2.9,0.3-4.1,1s-2.1,1.6-2.8,2.7c-0.7,1.2-1,2.5-1,4s0.3,2.8,1,4s1.6,2.1,2.8,2.7   c1.2,0.6,2.5,1,4,1c1.6,0,3-0.3,4.3-1L64.9,18.9L64.9,18.9L64.9,18.9z"></path>
	<path class="st0" d="M64.9,18.9H70v9.8c-1.3,1-2.8,1.7-4.5,2.3s-3.5,0.8-5.2,0.8c-2.5,0-4.8-0.5-6.7-1.6s-3.6-2.5-4.7-4.4   c-1.1-1.9-1.7-4-1.7-6.4s0.6-4.5,1.7-6.4c1.1-1.9,2.7-3.4,4.7-4.4s4.3-1.6,6.8-1.6c2.1,0,4,0.4,5.7,1.1s3.2,1.7,4.3,3.1l-3.6,3.3   c-1.7-1.8-3.8-2.7-6.2-2.7c-1.5,0-2.9,0.3-4.1,1s-2.1,1.6-2.8,2.7c-0.7,1.2-1,2.5-1,4s0.3,2.8,1,4s1.6,2.1,2.8,2.7   c1.2,0.6,2.5,1,4,1c1.6,0,3-0.3,4.3-1L64.9,18.9L64.9,18.9L64.9,18.9z"></path>
	<path d="M78.8,28.9c-1.9-1.9-2.9-4.6-2.9-8.1V7.3h5.6v13.3c0,4.3,1.8,6.5,5.4,6.5c1.7,0,3.1-0.5,4-1.6s1.4-2.7,1.4-4.9V7.3h5.5   v13.5c0,3.5-1,6.2-2.9,8.1s-4.6,2.9-8,2.9S80.7,30.8,78.8,28.9L78.8,28.9L78.8,28.9z"></path>
	<path d="M118.6,31.3l-4.6-6.7h-5.1v6.7h-5.6V7.3h10.4c2.1,0,4,0.4,5.6,1.1c1.6,0.7,2.8,1.7,3.6,3s1.3,2.9,1.3,4.6s-0.4,3.3-1.3,4.6   s-2.1,2.3-3.7,3l5.4,7.7L118.6,31.3L118.6,31.3L118.6,31.3z M117.2,12.9c-0.9-0.7-2.1-1.1-3.8-1.1h-4.5v8.4h4.5   c1.7,0,2.9-0.4,3.8-1.1s1.3-1.8,1.3-3.1S118,13.6,117.2,12.9z"></path>
	<path d="M131.2,28.9c-1.9-1.9-2.9-4.6-2.9-8.1V7.3h5.6v13.3c0,4.3,1.8,6.5,5.4,6.5c1.7,0,3.1-0.5,4-1.6s1.4-2.7,1.4-4.9V7.3h5.5   v13.5c0,3.5-1,6.2-2.9,8.1s-4.6,2.9-8,2.9S133.1,30.8,131.2,28.9L131.2,28.9L131.2,28.9z"></path>
	<rect class="st1" width="155" height="38.6"></rect>
</g>
</svg>
