<?xml version="1.0" encoding="UTF-8"?>
<svg xmlns="http://www.w3.org/2000/svg" viewBox="0 0 170 28.94">
  <g id="Layer_2" data-name="Layer 2">
    <g id="Layer_2-2" data-name="Layer 2">
      <g id="Karma_1" data-name="Karma 1">
        <path d="M21.52,1.2V6.49H14.06V28.67H7.38V6.49H0V1.2Z" style="fill:#fff"></path>
        <path d="M36.91,1A7.26,7.26,0,0,1,40,3.71a7.19,7.19,0,0,1,1.07,3.9,6.47,6.47,0,0,1-1.38,4.32A6,6,0,0,1,36.28,14v.19q5.32,1.71,5.33,6.64A8.21,8.21,0,0,1,40.52,25a7.32,7.32,0,0,1-3.17,2.87,11.08,11.08,0,0,1-5,1,11.3,11.3,0,0,1-7.52-2.33q-2.78-2.33-3-7.11h6.49a4.48,4.48,0,0,0,1,2.88,3.45,3.45,0,0,0,2.72,1.05,2.92,2.92,0,0,0,3.11-3.07c0-2.26-1.63-3.38-4.9-3.38H29v-5.4h1.2q4.39.08,4.39-3.15a3,3,0,0,0-.75-2.16,2.79,2.79,0,0,0-2-.75,2.76,2.76,0,0,0-2.22,1A4.3,4.3,0,0,0,28.67,9H22.18A9.24,9.24,0,0,1,24.9,2.33,10,10,0,0,1,32,0,11.34,11.34,0,0,1,36.91,1Z" style="fill:#fff"></path>
        <path d="M81.78,7.85a6.75,6.75,0,0,1,2.64,3.07V7H91V28.67h-6.6V24.75a6.85,6.85,0,0,1-2.64,3.07,7.89,7.89,0,0,1-4.28,1.12,8.75,8.75,0,0,1-4.8-1.34,9.19,9.19,0,0,1-3.34-3.86,13.53,13.53,0,0,1-1.22-5.91,13.42,13.42,0,0,1,1.22-5.92A9.22,9.22,0,0,1,72.7,8.06a8.83,8.83,0,0,1,4.8-1.34A7.9,7.9,0,0,1,81.78,7.85ZM76.2,14a5.45,5.45,0,0,0-1.3,3.88,5.49,5.49,0,0,0,1.3,3.89,4.9,4.9,0,0,0,6.88,0,5.44,5.44,0,0,0,1.34-3.85A5.39,5.39,0,0,0,83.08,14a4.52,4.52,0,0,0-3.44-1.42A4.45,4.45,0,0,0,76.2,14Z" style="fill:#fff"></path>
        <path d="M103.67,7.93a8.12,8.12,0,0,1,4.25-1.17v7.11H106a6.49,6.49,0,0,0-4.1,1.13,4.52,4.52,0,0,0-1.46,3.8v9.87H93.82V7h6.64v4.08A9.36,9.36,0,0,1,103.67,7.93Z" style="fill:#fff"></path>
        <path d="M143.31,9.23a9.66,9.66,0,0,1,2.29,6.85V28.67H139V16.86a4.4,4.4,0,0,0-1.11-3.2,4,4,0,0,0-3-1.15,4.11,4.11,0,0,0-3.13,1.22,4.86,4.86,0,0,0-1.14,3.44v11.5H124V16.86a4.47,4.47,0,0,0-1.08-3.2,3.93,3.93,0,0,0-3-1.15,4.18,4.18,0,0,0-3.15,1.2,4.78,4.78,0,0,0-1.17,3.46v11.5h-6.64V7h6.64v3.69a6.51,6.51,0,0,1,2.63-2.87,7.9,7.9,0,0,1,4.13-1,8.29,8.29,0,0,1,4.39,1.15,7.16,7.16,0,0,1,2.88,3.28A8.71,8.71,0,0,1,132.69,8a8.9,8.9,0,0,1,10.62,1.27Z" style="fill:#fff"></path>
        <path d="M160.75,7.85a6.77,6.77,0,0,1,2.65,3.07V7H170V28.67h-6.6V24.75a6.87,6.87,0,0,1-2.65,3.07,7.83,7.83,0,0,1-4.27,1.12,8.72,8.72,0,0,1-4.8-1.34,9.19,9.19,0,0,1-3.34-3.86,13.53,13.53,0,0,1-1.22-5.91,13.42,13.42,0,0,1,1.22-5.92,9.22,9.22,0,0,1,3.34-3.85,8.81,8.81,0,0,1,4.8-1.34A7.84,7.84,0,0,1,160.75,7.85ZM155.18,14a5.45,5.45,0,0,0-1.3,3.88,5.49,5.49,0,0,0,1.3,3.89,4.9,4.9,0,0,0,6.88,0,5.44,5.44,0,0,0,1.34-3.85A5.39,5.39,0,0,0,162.06,14a4.52,4.52,0,0,0-3.44-1.42A4.45,4.45,0,0,0,155.18,14Z" style="fill:#fff"></path>
        <polygon points="57.19 14.65 57.18 14.65 68.26 1.2 60.29 1.2 50.89 13.29 50.89 1.2 44.25 1.2 44.25 28.67 50.89 28.67 50.89 16.36 53.22 19.43 57.19 14.65" style="fill:#fff"></polygon>
        <polygon points="58.91 16.84 54.84 21.58 60.21 28.67 68.26 28.67 58.91 16.84" style="fill:#0188cc"></polygon>
      </g>
    </g>
  </g>
</svg>
