<svg aria-hidden="true" width="26" height="26" viewBox="0 0 26 26" fill="none" xmlns="http://www.w3.org/2000/svg"> <path d="M24.17 8.8633L7.93097 23.4928C6.2042 24.9899 3.59123 24.805 2.09415 23.0782C0.636983 21.3979 0.76812 18.8664 2.39145 17.3465L18.6313 2.71533" fill="url(#paint0_linear_2956_7250)"></path> <path d="M17.6783 5.09064L17.6209 15.7142C17.6102 17.6845 19.1988 19.2904 21.1691 19.301L21.1699 19.301C23.1402 19.3117 24.7461 17.7231 24.7567 15.7528L24.8142 5.12925C24.8249 3.15896 23.2363 1.55308 21.266 1.54242L21.2652 1.54242C19.2949 1.53176 17.689 3.12035 17.6783 5.09064Z" fill="url(#paint1_linear_2956_7250)"></path> <path d="M24.8442 5.05162C24.845 7.01949 23.251 8.61594 21.2823 8.61676L10.78 8.62246C8.81211 8.62328 7.21566 7.02927 7.21484 5.06058C7.21322 3.09271 8.80804 1.49626 10.7759 1.49545L21.2783 1.48975C23.2461 1.48893 24.8426 3.08294 24.8434 5.05162H24.8442Z" fill="url(#paint2_linear_2956_7250)"></path> <path d="M10.6599 8.6337C12.6315 8.6337 14.2299 7.03534 14.2299 5.06367C14.2299 3.09201 12.6315 1.49365 10.6599 1.49365C8.6882 1.49365 7.08984 3.09201 7.08984 5.06367C7.08984 7.03534 8.6882 8.6337 10.6599 8.6337Z" fill="#FF5C35"></path> <defs> <linearGradient id="paint0_linear_2956_7250" x1="12.6258" y1="2.71533" x2="12.6258" y2="24.5053" gradientUnits="userSpaceOnUse"> <stop offset="0.18" stop-color="#FF814E"></stop> <stop offset="0.82" stop-color="#FF5C35"></stop> </linearGradient> <linearGradient id="paint1_linear_2956_7250" x1="21.2182" y1="1.5427" x2="21.2182" y2="19.3016" gradientUnits="userSpaceOnUse"> <stop offset="0.18" stop-color="#FF824E"></stop> <stop offset="0.45" stop-color="#FF7E4B"></stop> <stop offset="0.71" stop-color="#FF7243"></stop> <stop offset="0.97" stop-color="#FF5E36"></stop> <stop offset="1" stop-color="#FF5C35"></stop> </linearGradient> <linearGradient id="paint2_linear_2956_7250" x1="21.0754" y1="-0.000161695" x2="9.99489" y2="9.69938" gradientUnits="userSpaceOnUse"> <stop offset="0.27" stop-color="#FF824E"></stop> <stop offset="0.74" stop-color="#FFA766"></stop> </linearGradient> </defs> </svg>