<svg aria-hidden="true" width="26" height="26" viewBox="0 0 26 26" fill="none" xmlns="http://www.w3.org/2000/svg"> <path d="M2.4394 12.7292C1.45909 11.7458 0.909089 10.4137 0.910158 9.02516C0.911227 7.63666 1.46328 6.30534 2.4451 5.32352C3.42692 4.3417 4.75825 3.78964 6.14675 3.78858C7.53525 3.78751 8.86742 4.33751 9.85075 5.31782L20.4133 15.8803L14.8649 21.4287C13.836 22.4576 12.1678 22.4576 11.1389 21.4287L2.4394 12.7292Z" fill="#FF5C35"></path> <path d="M5.58984 15.8805L16.1523 5.318C16.6387 4.83013 17.2165 4.44294 17.8526 4.17858C18.4888 3.91422 19.1708 3.77788 19.8597 3.77735C20.5486 3.77682 21.2308 3.91211 21.8674 4.17549C22.5039 4.43887 23.0823 4.82517 23.5694 5.31229C24.0565 5.7994 24.4428 6.37778 24.7062 7.01433C24.9696 7.65088 25.1049 8.33311 25.1043 9.022C25.1038 9.71089 24.9675 10.3929 24.7031 11.0291C24.4387 11.6652 24.0516 12.243 23.5637 12.7293L14.8642 21.4289C13.8353 22.4577 12.1671 22.4577 11.1382 21.4289L5.58984 15.8805Z" fill="url(#paint0_linear_2956_15699)"></path> <path d="M19.8578 14.264C22.7521 14.264 25.0984 11.9177 25.0984 9.02334C25.0984 6.12902 22.7521 3.78271 19.8578 3.78271C16.9635 3.78271 14.6172 6.12902 14.6172 9.02334C14.6172 11.9177 16.9635 14.264 19.8578 14.264Z" fill="#FF5C35"></path> <defs> <linearGradient id="paint0_linear_2956_15699" x1="9.27159" y1="19.6101" x2="19.8939" y2="8.98775" gradientUnits="userSpaceOnUse"> <stop offset="0.176" stop-color="#FF5C35"></stop> <stop offset="0.276" stop-color="#FF653B"></stop> <stop offset="0.437" stop-color="#FF7D4B"></stop> <stop offset="0.64" stop-color="#FFA564"></stop> <stop offset="0.651" stop-color="#FFA766"></stop> </linearGradient> </defs> </svg>