<svg aria-hidden="true" width="26" height="26" viewBox="0 0 26 26" fill="none" xmlns="http://www.w3.org/2000/svg"> <path d="M5.4932 20.5832C4.88482 20.5832 4.28866 20.4124 3.77255 20.0903C3.25643 19.7682 2.84109 19.3077 2.57378 18.7612C2.30647 18.2147 2.19792 17.6041 2.26049 16.999C2.32305 16.3938 2.55422 15.8184 2.92769 15.3381C3.50252 14.5989 3.79399 13.8122 3.79399 12.9999C3.79399 12.1875 3.50252 11.4008 2.92769 10.6616C2.66444 10.3248 2.47021 9.93941 2.35614 9.52743C2.24206 9.11545 2.21038 8.68502 2.26291 8.26078C2.31544 7.83654 2.45115 7.42683 2.66227 7.05512C2.87338 6.68341 3.15575 6.357 3.4932 6.09459C3.83066 5.83217 4.21656 5.6389 4.62882 5.52586C5.04108 5.41281 5.4716 5.38221 5.8957 5.43579C6.31981 5.48938 6.72918 5.62611 7.10036 5.83815C7.47154 6.05019 7.79725 6.33337 8.05882 6.67148C9.52109 8.55185 10.294 10.7402 10.294 12.9999C10.294 15.2596 9.52111 17.4479 8.05882 19.3283C7.75496 19.719 7.36587 20.0352 6.92124 20.2527C6.47661 20.4702 5.98818 20.5832 5.4932 20.5832Z" fill="#FF5C35"></path> <path d="M20.5039 20.5836C20.0089 20.5836 19.5205 20.4705 19.0759 20.253C18.6312 20.0355 18.2421 19.7194 17.9383 19.3286C16.476 17.4483 15.7031 15.26 15.7031 13.0002C15.7031 10.7405 16.476 8.55219 17.9383 6.67182C18.4676 5.99199 19.2452 5.55016 20.1002 5.44348C20.9552 5.33679 21.8176 5.57398 22.4977 6.1029C23.1779 6.63182 23.6202 7.40917 23.7274 8.26409C23.8346 9.119 23.5979 9.9815 23.0694 10.662C22.4946 11.4012 22.2031 12.1879 22.2031 13.0002C22.2031 13.8126 22.4946 14.5993 23.0694 15.3385C23.4429 15.8188 23.6741 16.3942 23.7366 16.9993C23.7992 17.6045 23.6906 18.2151 23.4233 18.7616C23.156 19.3081 22.7407 19.7686 22.2246 20.0907C21.7085 20.4128 21.1123 20.5836 20.5039 20.5836Z" fill="#FF5C35"></path> <path d="M6.58292 11.9929C6.06982 11.9925 5.55734 11.9568 5.04913 11.8862C4.62575 11.8284 4.21792 11.6878 3.84896 11.4722C3.48001 11.2567 3.15718 10.9705 2.89894 10.6301C2.64071 10.2897 2.45214 9.90164 2.34403 9.48825C2.23592 9.07486 2.21038 8.64421 2.26889 8.22094C2.3274 7.79767 2.4688 7.39009 2.68501 7.02153C2.90121 6.65297 3.18796 6.33066 3.52887 6.07305C3.86977 5.81543 4.25813 5.62757 4.67172 5.52021C5.08531 5.41286 5.516 5.38811 5.93917 5.44739C6.86669 5.5756 7.69375 5.43467 8.39728 5.02849C9.10081 4.62231 9.63634 3.97655 9.98911 3.10914C10.1496 2.71332 10.3865 2.35301 10.6863 2.04881C10.986 1.74461 11.3429 1.50248 11.7363 1.33627C12.1297 1.17006 12.5521 1.08303 12.9792 1.08015C13.4063 1.07727 13.8297 1.15861 14.2254 1.3195C14.621 1.48039 14.981 1.71769 15.2849 2.01782C15.5888 2.31796 15.8305 2.67504 15.9963 3.06866C16.162 3.46228 16.2486 3.88471 16.251 4.31181C16.2534 4.7389 16.1716 5.16228 16.0103 5.55774C15.113 7.76427 13.6043 9.5278 11.6473 10.6577C10.1182 11.5405 8.39078 11.9929 6.58292 11.9929Z" fill="#FF5C35"></path> <path d="M13 24.9167C12.4673 24.9167 11.9428 24.7858 11.4726 24.5354C11.0024 24.2851 10.6009 23.923 10.3036 23.481C10.0062 23.0391 9.82201 22.5308 9.76723 22.0009C9.71245 21.4711 9.78875 20.9359 9.98942 20.4424C10.8867 18.2359 12.3954 16.4724 14.3524 15.3425C16.3094 14.2127 18.5909 13.7879 20.9505 14.114C21.374 14.1716 21.782 14.3122 22.151 14.5277C22.5201 14.7432 22.8431 15.0294 23.1014 15.3698C23.3597 15.7103 23.5484 16.0983 23.6565 16.5118C23.7647 16.9253 23.7902 17.356 23.7317 17.7793C23.6732 18.2027 23.5318 18.6103 23.3155 18.979C23.0992 19.3476 22.8124 19.6699 22.4714 19.9275C22.1304 20.1851 21.7419 20.373 21.3282 20.4803C20.9145 20.5875 20.4838 20.6122 20.0605 20.5528C19.1329 20.4246 18.3059 20.5655 17.6024 20.9717C16.8989 21.3778 16.3633 22.0236 16.0106 22.891C15.7671 23.4898 15.3506 24.0023 14.8143 24.3632C14.278 24.724 13.6463 24.9167 13 24.9167Z" fill="#FF5C35"></path> <path d="M19.4154 11.993C17.6074 11.993 15.8803 11.5407 14.351 10.6578C12.3941 9.52792 10.8854 7.76439 9.98806 5.55786C9.66448 4.75962 9.671 3.86558 10.0062 3.07216C10.3414 2.27873 10.9778 1.6508 11.7757 1.32634C12.5736 1.00187 13.4676 1.00739 14.2614 1.3417C15.0552 1.676 15.6838 2.31174 16.0092 3.10925C16.3619 3.97666 16.8975 4.62242 17.601 5.02858C18.3045 5.43473 19.1316 5.57566 20.0592 5.4475C20.4823 5.38822 20.913 5.41297 21.3266 5.52033C21.7402 5.62769 22.1285 5.81555 22.4695 6.07316C22.8104 6.33078 23.0971 6.65309 23.3133 7.02165C23.5295 7.39021 23.6709 7.79779 23.7294 8.22106C23.7879 8.64433 23.7624 9.07498 23.6543 9.48837C23.5462 9.90176 23.3576 10.2898 23.0994 10.6302C22.8411 10.9706 22.5183 11.2568 22.1494 11.4723C21.7804 11.6879 21.3726 11.8285 20.9492 11.8863C20.441 11.9569 19.9285 11.9926 19.4154 11.993Z" fill="url(#paint0_linear_2956_10843)"></path> <path d="M13.0006 24.9168C12.3543 24.9168 11.7226 24.724 11.1863 24.3632C10.65 24.0024 10.2335 23.4898 9.99005 22.8911C9.63731 22.0237 9.10172 21.3779 8.39821 20.9717C7.69471 20.5655 6.86764 20.4246 5.94009 20.5528C5.51686 20.6122 5.08608 20.5876 4.67239 20.4803C4.2587 20.373 3.87024 20.1852 3.52923 19.9276C3.18823 19.67 2.90138 19.3476 2.68512 18.979C2.46885 18.6104 2.32741 18.2027 2.26889 17.7794C2.21037 17.356 2.23593 16.9253 2.34409 16.5118C2.45225 16.0984 2.6409 15.7103 2.89923 15.3699C3.15757 15.0294 3.48051 14.7432 3.84958 14.5277C4.21866 14.3123 4.6266 14.1717 5.05007 14.1141C7.40964 13.7879 9.69124 14.2127 11.6482 15.3426C13.6052 16.4724 15.1139 18.2359 16.0112 20.4425C16.2119 20.9359 16.2882 21.4711 16.2334 22.001C16.1786 22.5308 15.9944 23.0391 15.6971 23.4811C15.3997 23.923 14.9982 24.2851 14.528 24.5355C14.0578 24.7858 13.5333 24.9168 13.0006 24.9168Z" fill="url(#paint1_linear_2956_10843)"></path> <path d="M20.5039 11.9165C22.2988 11.9165 23.7539 10.4614 23.7539 8.6665C23.7539 6.87158 22.2988 5.4165 20.5039 5.4165C18.709 5.4165 17.2539 6.87158 17.2539 8.6665C17.2539 10.4614 18.709 11.9165 20.5039 11.9165Z" fill="#FF5C35"></path> <path d="M6.59853 14.0166C8.40785 14.0166 10.1319 14.4667 11.6536 15.3453C13.6042 16.4715 15.1114 18.2376 16.0123 20.4528C16.1741 20.8483 16.2563 21.2719 16.2542 21.6993C16.2521 22.1266 16.1658 22.5494 16.0001 22.9433C15.8344 23.3373 15.5926 23.6947 15.2886 23.9951C14.9847 24.2955 14.6244 24.533 14.2285 24.694C13.8326 24.8549 13.4089 24.9363 12.9815 24.9333C12.5542 24.9303 12.1316 24.8431 11.738 24.6766C11.3444 24.51 10.9875 24.2675 10.6878 23.9629C10.388 23.6583 10.1513 23.2976 9.9911 22.9014C9.6348 22.0252 9.10069 21.3769 8.40363 20.9745C7.87537 20.6695 7.27148 20.5161 6.60229 20.5161C6.38109 20.5166 6.16017 20.5323 5.94112 20.5631C5.08729 20.6811 4.22154 20.4551 3.53433 19.9349C2.84712 19.4146 2.39474 18.6426 2.27672 17.7887C2.15869 16.9349 2.38469 16.0692 2.90498 15.3819C3.42528 14.6947 4.19726 14.2424 5.0511 14.1243C5.56383 14.053 6.08086 14.017 6.59853 14.0166Z" fill="url(#paint2_linear_2956_10843)"></path> <defs> <linearGradient id="paint0_linear_2956_10843" x1="10.9909" y1="1.86134" x2="23.0839" y2="12.6846" gradientUnits="userSpaceOnUse"> <stop offset="0.186" stop-color="#FF5C35"></stop> <stop offset="0.613" stop-color="#FFA766"></stop> </linearGradient> <linearGradient id="paint1_linear_2956_10843" x1="15.7835" y1="23.1646" x2="3.50416" y2="14.856" gradientUnits="userSpaceOnUse"> <stop offset="0.158" stop-color="#FF5C35"></stop> <stop offset="0.953" stop-color="#FFA766"></stop> </linearGradient> <linearGradient id="paint2_linear_2956_10843" x1="15.0117" y1="24.1467" x2="2.91866" y2="13.3235" gradientUnits="userSpaceOnUse"> <stop offset="0.111" stop-color="#FF5C35"></stop> <stop offset="0.876" stop-color="#FFA766"></stop> </linearGradient> </defs> </svg>