<svg aria-hidden="true" width="26" height="26" viewBox="0 0 26 26" fill="none" xmlns="http://www.w3.org/2000/svg"> <g clip-path="url(#clip0_2956_13962)"> <path d="M13 9.75C12.138 9.75 11.3114 10.0924 10.7019 10.7019C10.0924 11.3114 9.75 12.138 9.75 13V21.6667C9.74993 22.3603 9.97176 23.0357 10.3831 23.5942C10.7944 24.1527 11.3735 24.5649 12.0359 24.7707C12.6983 24.9764 13.4091 24.9648 14.0645 24.7376C14.7198 24.5104 15.2853 24.0795 15.6781 23.5079L21.6365 14.8412C21.9714 14.354 22.1672 13.7846 22.2025 13.1944C22.2379 12.6042 22.1116 12.0155 21.8372 11.4918C21.5628 10.968 21.1508 10.5291 20.6454 10.2221C20.14 9.91523 19.5605 9.75198 18.9692 9.75H13Z" fill="#FF5C35"></path> <path d="M13.0013 16.2502C13.8633 16.2502 14.6899 15.9078 15.2994 15.2983C15.9089 14.6888 16.2513 13.8621 16.2513 13.0002V4.3335C16.2513 3.63994 16.0294 2.96456 15.6181 2.40612C15.2068 1.84769 14.6276 1.43547 13.9653 1.22975C13.3029 1.02403 12.5922 1.0356 11.9368 1.26276C11.2815 1.48992 10.7161 1.92075 10.3232 2.49228L4.36483 11.1589C4.02934 11.6469 3.83356 12.2173 3.79863 12.8085C3.7637 13.3996 3.89095 13.9891 4.16665 14.5132C4.44234 15.0373 4.85599 15.4761 5.36292 15.7822C5.86985 16.0884 6.45078 16.2502 7.04297 16.2502H13.0013Z" fill="url(#paint0_linear_2956_13962)"></path> <path d="M13 7.5835C14.7949 7.5835 16.25 6.12842 16.25 4.3335C16.25 2.53857 14.7949 1.0835 13 1.0835C11.2051 1.0835 9.75 2.53857 9.75 4.3335C9.75 6.12842 11.2051 7.5835 13 7.5835Z" fill="#FF5C35"></path> <path d="M18.9596 16.25H7.04297C6.18102 16.25 5.35437 15.9076 4.74487 15.2981C4.13538 14.6886 3.79297 13.862 3.79297 13C3.79297 12.138 4.13538 11.3114 4.74487 10.7019C5.35437 10.0924 6.18102 9.75 7.04297 9.75H18.9596C19.8216 9.75 20.6482 10.0924 21.2577 10.7019C21.8672 11.3114 22.2096 12.138 22.2096 13C22.2096 13.862 21.8672 14.6886 21.2577 15.2981C20.6482 15.9076 19.8216 16.25 18.9596 16.25Z" fill="url(#paint1_linear_2956_13962)"></path> </g> <defs> <linearGradient id="paint0_linear_2956_13962" x1="3.79296" y1="8.66671" x2="16.2513" y2="8.66671" gradientUnits="userSpaceOnUse"> <stop offset="0.265" stop-color="#FF824E"></stop> <stop offset="0.736" stop-color="#FFA766"></stop> </linearGradient> <linearGradient id="paint1_linear_2956_13962" x1="6.52703" y1="8.22442" x2="19.4756" y2="17.7756" gradientUnits="userSpaceOnUse"> <stop offset="0.181" stop-color="#FF824E"></stop> <stop offset="0.822" stop-color="#FF5C35"></stop> </linearGradient> <clipPath id="clip0_2956_13962"> <rect width="26" height="26" fill="white"></rect> </clipPath> </defs></svg>