<svg aria-hidden="true" width="26" height="26" viewBox="0 0 26 26" fill="none" xmlns="http://www.w3.org/2000/svg"> <path d="M21.3958 20.1584L16.1112 3.89426C15.7072 2.55908 14.4673 1.58691 13.0003 1.58691C11.5332 1.58691 10.2934 2.55908 9.8893 3.89426L4.60477 20.1584C4.39237 20.8112 4.39216 21.5144 4.60415 22.1673C4.81614 22.8202 5.22945 23.3892 5.7848 23.7927C6.34016 24.1962 7.00902 24.4134 7.69547 24.4133C8.38193 24.4131 9.05069 24.1956 9.60587 23.7919L9.60599 23.792L13.0003 21.3259L16.3945 23.792C16.3953 23.7926 16.3962 23.793 16.3969 23.7935C16.9523 24.1963 17.6209 24.413 18.307 24.4126C18.9931 24.4122 19.6614 24.1946 20.2163 23.7911C20.7712 23.3876 21.1841 22.8189 21.396 22.1663C21.6079 21.5138 21.6078 20.8109 21.3958 20.1584Z" fill="#FF5C35"></path> <path d="M18.3055 24.4131C17.6192 24.4131 16.9505 24.1959 16.3952 23.7924L2.50767 13.7026C2.16238 13.4517 1.86989 13.1353 1.64689 12.7714C1.42389 12.4075 1.27475 12.0032 1.20798 11.5817C1.14122 11.1601 1.15813 10.7296 1.25777 10.3145C1.3574 9.89955 1.5378 9.50823 1.78866 9.16294C2.03953 8.81766 2.35594 8.52516 2.71985 8.30216C3.08375 8.07916 3.48802 7.93002 3.90956 7.86326C4.3311 7.79649 4.76166 7.81341 5.17667 7.91304C5.59167 8.01267 5.98299 8.19307 6.32828 8.44394L20.2158 18.5338C20.7711 18.9372 21.1844 19.5061 21.3965 20.1588C21.6085 20.8116 21.6085 21.5147 21.3965 22.1675C21.1844 22.8202 20.7711 23.389 20.2158 23.7925C19.6606 24.1959 18.9918 24.4131 18.3055 24.4131Z" fill="url(#paint0_linear_2956_10773)"></path> <path d="M22.2085 14.3232H4.41797C3.55601 14.3232 2.72936 13.9808 2.11987 13.3713C1.51038 12.7618 1.16797 11.9352 1.16797 11.0732C1.16797 10.2113 1.51038 9.38464 2.11987 8.77515C2.72936 8.16565 3.55601 7.82324 4.41797 7.82324H22.2085C23.0704 7.82324 23.8971 8.16565 24.5066 8.77515C25.1161 9.38464 25.4585 10.2113 25.4585 11.0732C25.4585 11.9352 25.1161 12.7618 24.5066 13.3713C23.8971 13.9808 23.0704 14.3232 22.2085 14.3232Z" fill="url(#paint1_linear_2956_10773)"></path> <path d="M22.207 14.3232C24.002 14.3232 25.457 12.8682 25.457 11.0732C25.457 9.27832 24.002 7.82324 22.207 7.82324C20.4121 7.82324 18.957 9.27832 18.957 11.0732C18.957 12.8682 20.4121 14.3232 22.207 14.3232Z" fill="#FF5C35"></path> <defs> <linearGradient id="paint0_linear_2956_10773" x1="4.6657" y1="11.179" x2="18.0756" y2="21.0705" gradientUnits="userSpaceOnUse"> <stop offset="0.181" stop-color="#FF824E"></stop> <stop offset="0.822" stop-color="#FF5C35"></stop> </linearGradient> <linearGradient id="paint1_linear_2956_10773" x1="1.41295" y1="11.0732" x2="25.2008" y2="11.0732" gradientUnits="userSpaceOnUse"> <stop offset="0.265" stop-color="#FF824E"></stop> <stop offset="0.736" stop-color="#FFA766"></stop> </linearGradient> </defs> </svg>