<svg aria-hidden="true" width="26" height="26" viewBox="0 0 26 26" fill="none" xmlns="http://www.w3.org/2000/svg"> <g clip-path="url(#clip0_2956_6804)"> <path d="M7.57789 24.2678L21.8941 16.0023C23.5512 15.0456 24.119 12.9267 23.1622 11.2696C22.2055 9.61248 20.0866 9.04471 18.4295 10.0014L4.11328 18.2669C2.45618 19.2236 1.88842 21.3426 2.84514 22.9997C3.80187 24.6567 5.92079 25.2245 7.57789 24.2678Z" fill="#FF5C35"></path> <path d="M9.3125 21.2656L9.3125 4.73463C9.3125 2.82118 7.76134 1.27002 5.84789 1.27002C3.93443 1.27002 2.38327 2.82118 2.38327 4.73463L2.38327 21.2656C2.38327 23.179 3.93443 24.7302 5.84789 24.7302C7.76134 24.7302 9.3125 23.179 9.3125 21.2656Z" fill="url(#paint0_linear_2956_6804)"></path> <path d="M21.8909 9.99777L7.57466 1.73231C5.91756 0.77558 3.79864 1.34334 2.84191 3.00044C1.88519 4.65754 2.45295 6.77646 4.11005 7.73319L18.4262 15.9987C20.0833 16.9554 22.2023 16.3876 23.159 14.7305C24.1157 13.0734 23.548 10.9545 21.8909 9.99777Z" fill="url(#paint1_linear_2956_6804)"></path> <path d="M20.1603 16.4828C22.0783 16.4828 23.6332 14.9279 23.6332 13.0099C23.6332 11.092 22.0783 9.53711 20.1603 9.53711C18.2423 9.53711 16.6875 11.092 16.6875 13.0099C16.6875 14.9279 18.2423 16.4828 20.1603 16.4828Z" fill="#FF5C35"></path> </g> <defs> <linearGradient id="paint0_linear_2956_6804" x1="9.38925" y1="2.25404" x2="2.30379" y2="23.7461" gradientUnits="userSpaceOnUse"> <stop offset="0.18" stop-color="#FF824E"></stop> <stop offset="0.42" stop-color="#FF7747"></stop> <stop offset="0.82" stop-color="#FF5C35"></stop> </linearGradient> <linearGradient id="paint1_linear_2956_6804" x1="10.0007" y1="-0.273955" x2="16.0008" y2="18.0057" gradientUnits="userSpaceOnUse"> <stop offset="0.27" stop-color="#FF824E"></stop> <stop offset="0.74" stop-color="#FFA766"></stop> </linearGradient> <clipPath id="clip0_2956_6804"> <rect width="26" height="26" fill="white"></rect> </clipPath> </defs> </svg>