<?xml version="1.0" encoding="UTF-8"?>
<svg xmlns="http://www.w3.org/2000/svg" width="200" height="80" id="Ebene_1" data-name="Ebene 1" viewBox="0 0 611.1 318.9">
  <defs>
    <style>.cls-1{fill:#0076be;}</style>
  </defs>
  <path class="cls-1" d="M237,306.9H188.5V12.8H237Zm-60.3,12h72.4V1.1H176.7ZM565.3,135v44.9H497.2v83h71.2v44H447.3V12.8H568.4V49.7H497.2v85.2Zm14.8-73.2V1.1H435V318.9H580.1V251.3H508.7V191.9h68.1v-69H508.7V61.8ZM351.3,107.6c0,8.1-2.7,13.7-10.3,15.6a63.25,63.25,0,0,1-8.6.1V62.7c3,.1,7.2-.3,9.6.4s9.3,3.7,9.3,13.6Zm.3-53.4c-9-5.6-14.7-4.6-27.8-4.4-2.5,0-3.7.1-3.7.1v86h13.6c16.2,0,27.7-8.9,27.7-21.5V73.7c.1-12.2-7.3-18-9.8-19.5m60.6,193.5c0,40.6-30.9,59.2-49.6,59.2H270.8V12.8h85.3c40.8,0,56.1,35.7,56.1,51.2v39.3s3.6,31.2-35.2,51.3c0,0,33.6,14.4,35.2,52.6.2,3.6,0,10.1,0,40.5m11.7-40.4c-1.5-33.6-25.4-52.6-25.4-52.6s12-10.2,18.5-22.8c4.7-9,6.6-21.2,6.6-35.4V67.8c0-33.9-26.8-66.7-69.9-66.7H259.2V318.9H359.8c3.8,0,64-4.4,64-74.1.2-11.2.5-30.1.1-37.5m-72.6,30.8c0,7.1-5.4,12.1-15.5,12.1h-3.4v-63h2c10.7-.1,17.1,2.8,16.9,18.4Zm-13.4-63.9H320.1v88.1h14.1c19.8,0,28.2-10.4,28.2-25.5V200.1c0-18.9-13.3-25.9-24.5-25.9M92.8,106.6c0,8.4-2.2,13.4-10.3,15.6a60.15,60.15,0,0,1-8,.2V62.6a25.53,25.53,0,0,1,9.8.5c2.4.9,8.5,3.1,8.5,12.7ZM93,53.3c-6.6-4.1-12-3.4-25.1-3.4-2.4,0-5.6.1-5.6.1v84.8s10.4-.2,12.3-.2c18.7,0,29.1-9.1,29.1-23.2v-39c-.1-11.2-8.3-17.6-10.7-19.1m15.8,253.6s-4-9.3-4-33.2V213.1c0-6.5,0-21.4-8.8-27.8-7-5.1-16.4-4.8-21.5-5.1a117.63,117.63,0,0,0-12.3.5V306.9H13.1V12.8H94.6c35.2,0,58.8,25.6,58.8,53.8v39.3c0,13.4-1.2,19.4-8.4,31-8.7,14-26.4,21.9-26.4,21.9s15.1,9.5,20.9,16.4c5.1,6,14.7,20.4,14.7,39.2v48.2a286.45,286.45,0,0,0,3.9,44.3ZM166,276.8V213.6c0-34.4-25.5-54.8-25.5-54.8s13.8-11.5,19.8-26.4c6.1-17.6,5-28.2,5-32.1L165.2,66c0-38.4-33.1-65-68.9-65H0V318.9H74.4l-.1-126.4a38.44,38.44,0,0,1,6.2-.4c4,0,13,3.4,13,15.3v71.3c0,28.2,7.8,40.2,7.8,40.2h71.8c-3.6-14.8-7.1-28.4-7.1-42.1"></path>
  <path class="cls-1" d="M604.5,8.6c0-2.6-1.6-3.9-4.5-3.9h-5.1V18h2V12.4h2.2l3.7,5.6h2L601,12.3A3.53,3.53,0,0,0,604.5,8.6Zm-7.7,2v-4h2.7c1.4,0,2.9.2,2.9,2,0,2-1.6,2.1-3.5,2.1h-2.1Z"></path>
  <path class="cls-1" d="M599.4,0a11.7,11.7,0,1,0,11.7,11.7A11.71,11.71,0,0,0,599.4,0Zm-.1,21.6a9.8,9.8,0,1,1,9.8-9.8A9.82,9.82,0,0,1,599.3,21.6Z"></path>
</svg>
