<?xml version="1.0" encoding="UTF-8"?>
<svg xmlns="http://www.w3.org/2000/svg" width="200" height="80" viewBox="0 0 164 49.11">
  <defs>
    <style>.cls-1{fill:#000;}.cls-2{fill:#f4c85b;}</style>
  </defs>
  <g id="Layer_2" data-name="Layer 2">
    <g id="Layer_1-2" data-name="Layer 1">
      <path class="cls-1" d="M63,17.86H55.41v-2H72.83v2H65.26V37.44H63Z"></path>
      <path class="cls-1" d="M87.34,27a5.6,5.6,0,0,1,1.77,4.29,5.82,5.82,0,0,1-3.54,5.54,9.82,9.82,0,0,1-4.27.84,12.91,12.91,0,0,1-4.42-.76,8.78,8.78,0,0,1-3.34-2l1.08-1.75a7.79,7.79,0,0,0,2.86,1.8,10.49,10.49,0,0,0,3.82.69,6.42,6.42,0,0,0,4.09-1.15,3.87,3.87,0,0,0,1.45-3.19,3.8,3.8,0,0,0-1.45-3.14A7.07,7.07,0,0,0,81,27H79.48V25.34l6-7.48h-11v-2H88.28v1.57l-6.09,7.67A7.92,7.92,0,0,1,87.34,27Z"></path>
      <path class="cls-1" d="M112.94,15.89V37.44h-4.1L98.1,24.36V37.44H93.18V15.89H97.3L108,29V15.89Z"></path>
      <path class="cls-1" d="M132.6,26.33h4.56v8.74a13,13,0,0,1-4.06,2,15.86,15.86,0,0,1-4.65.71,12.61,12.61,0,0,1-6-1.43,10.64,10.64,0,0,1-4.2-4,10.91,10.91,0,0,1-1.53-5.74,10.88,10.88,0,0,1,1.53-5.74,10.46,10.46,0,0,1,4.23-4,12.74,12.74,0,0,1,6.09-1.44,13.26,13.26,0,0,1,5.14,1,10.26,10.26,0,0,1,3.88,2.77l-3.2,2.95a7.41,7.41,0,0,0-5.57-2.43,7.5,7.5,0,0,0-3.66.87,6.16,6.16,0,0,0-2.5,2.43,7.67,7.67,0,0,0,0,7.17,6.42,6.42,0,0,0,2.48,2.45,7.4,7.4,0,0,0,3.62.87,8.13,8.13,0,0,0,3.87-.92Z"></path>
      <path class="cls-1" d="M146.16,36.36a10.69,10.69,0,0,1-4.21-4,10.87,10.87,0,0,1-1.53-5.71,10.77,10.77,0,0,1,5.74-9.7,12.64,12.64,0,0,1,6.05-1.45,12.5,12.5,0,0,1,6,1.45,11,11,0,0,1,4.22,4A10.74,10.74,0,0,1,164,26.67a10.76,10.76,0,0,1-5.76,9.69,12.39,12.39,0,0,1-6,1.45A12.53,12.53,0,0,1,146.16,36.36Zm9.5-3.67a6.37,6.37,0,0,0,2.41-2.45,7.16,7.16,0,0,0,.88-3.57,7.11,7.11,0,0,0-.88-3.57,6.24,6.24,0,0,0-2.41-2.45,7.2,7.2,0,0,0-6.9,0,6.24,6.24,0,0,0-2.41,2.45,7.11,7.11,0,0,0-.88,3.57,7.16,7.16,0,0,0,.88,3.57,6.37,6.37,0,0,0,2.41,2.45,7.28,7.28,0,0,0,6.9,0Z"></path>
      <path class="cls-2" d="M25.35,11.73a5.61,5.61,0,0,1-1.07-.1,5.86,5.86,0,1,1,6.83-4.69h0A5.86,5.86,0,0,1,25.35,11.73Zm0-8.44A2.58,2.58,0,0,0,22.81,5.4a2.58,2.58,0,0,0,5.07.94,2.56,2.56,0,0,0-2.53-3Z"></path>
      <path class="cls-2" d="M25.3,26.51a2.47,2.47,0,0,1-2.13-1.23L13.31,9.62a2.47,2.47,0,0,1,.43-3.06,2.43,2.43,0,0,1,3-.3l8.51,5.31,8.31-5A2.47,2.47,0,0,1,37,9.87l-.06.09L27.41,25.32a2.48,2.48,0,0,1-2.1,1.19Zm-.68-2.92,0,0ZM26,23.54l0,0S26,23.56,26,23.54ZM18,10.94,25.3,22.5l7-11.35-5.84,3.5a2.47,2.47,0,0,1-2.58,0Zm6.79.89ZM35.24,9.41Z"></path>
      <path class="cls-2" d="M5.87,30.27a6.44,6.44,0,0,1-1.07-.09A5.87,5.87,0,0,1,1,27.73,5.79,5.79,0,0,1,.1,23.34a5.87,5.87,0,0,1,6.84-4.7h0A5.86,5.86,0,0,1,5.87,30.27Zm0-8.44a2.59,2.59,0,0,0-2.54,2.11,2.54,2.54,0,0,0,.41,1.93,2.58,2.58,0,0,0,4.66-1,2.56,2.56,0,0,0-2.53-3.05Z"></path>
      <path class="cls-2" d="M8.32,36.79A2.4,2.4,0,0,1,6.56,36a2.44,2.44,0,0,1-.3-3l5.31-8.5-5-8.32a2.46,2.46,0,0,1,3.27-3.44l.09.05,15.36,9.53a2.46,2.46,0,0,1,0,4.24L9.62,36.44A2.65,2.65,0,0,1,8.32,36.79Zm2.83-19.37,3.5,5.84a2.47,2.47,0,0,1,0,2.58l-3.68,5.9L22.5,24.46Zm12.44,7.71,0,0Zm-11.75-1h0Zm11.74-.31,0,0Z"></path>
      <path class="cls-2" d="M25.36,49.11a5.61,5.61,0,0,1-1.07-.1,5.89,5.89,0,0,1-4.7-6.84A5.85,5.85,0,0,1,22,38.41a5.88,5.88,0,0,1,8.16,1.51,5.87,5.87,0,0,1-4.84,9.19Zm0-8.45a2.55,2.55,0,0,0-1.46.46,2.58,2.58,0,0,0-1.08,1.65h0a2.58,2.58,0,1,0,4.67-1,2.57,2.57,0,0,0-1.66-1.07A2.59,2.59,0,0,0,25.36,40.66Z"></path>
      <path class="cls-2" d="M35.29,43.23A2.51,2.51,0,0,1,34,42.85l-8.51-5.31-8.31,5a2.47,2.47,0,0,1-3.45-3.28l.06-.09,9.52-15.36A2.5,2.5,0,0,1,25.4,22.6h0a2.48,2.48,0,0,1,2.14,1.23L37.4,39.49A2.47,2.47,0,0,1,37,42.55,2.42,2.42,0,0,1,35.29,43.23ZM15.47,39.7Zm10-5.59a2.45,2.45,0,0,1,1.3.38l5.91,3.68L25.41,26.61,18.37,38l5.84-3.5A2.51,2.51,0,0,1,25.48,34.11Zm-.75-8.58,0,0Zm1.38-.05,0,0Z"></path>
      <path class="cls-2" d="M44.67,30.14A6.56,6.56,0,0,1,43.6,30h0a5.86,5.86,0,1,1,1.07.1Zm-.47-3.33a2.58,2.58,0,1,0-2.07-3,2.59,2.59,0,0,0,2.07,3Z"></path>
      <path class="cls-2" d="M41.84,36.21a2.44,2.44,0,0,1-1.17-.29l-.1-.05L25.22,26.34a2.47,2.47,0,0,1,0-4.25l15.66-9.85a2.47,2.47,0,0,1,3.36,3.42L39,24.16l5,8.32a2.43,2.43,0,0,1-.32,3A2.46,2.46,0,0,1,41.84,36.21ZM28,24.22l11.35,7-3.5-5.84a2.43,2.43,0,0,1,0-2.57l3.68-5.91ZM27,24.88l0,0Zm-.08-1.36,0,0Z"></path>
    </g>
  </g>
</svg>
